<svg xmlns="http://www.w3.org/2000/svg" width="1400" height="640" viewBox="0 0 1400 640" role="img" aria-labelledby="title"><title id="title">Lichtspur auf der Wolkenkarte</title><defs><linearGradient id="background" x2="0" y2="1"><stop stop-color="#173d4e"/><stop offset="1" stop-color="#0c2430"/></linearGradient><radialGradient id="halo"><stop stop-color="#639bb0" stop-opacity=".3"/><stop offset="1" stop-color="#163846" stop-opacity="0"/></radialGradient><linearGradient id="cloud" x2=".2" y2="1"><stop stop-color="#f7fcff"/><stop offset=".55" stop-color="#c4d9ef"/><stop offset="1" stop-color="#7395b9"/></linearGradient><linearGradient id="crystal" x2="1" y2="1"><stop stop-color="#e8faff"/><stop offset=".42" stop-color="#84c6e3"/><stop offset="1" stop-color="#437bba"/></linearGradient><linearGradient id="metal" x2="1" y2="1"><stop stop-color="#e1f5fb"/><stop offset=".35" stop-color="#86b7d6"/><stop offset=".7" stop-color="#c8e5f2"/><stop offset="1" stop-color="#567b9b"/></linearGradient><linearGradient id="gold" x2=".2" y2="1"><stop stop-color="#ffe2a3"/><stop offset=".5" stop-color="#c48738"/><stop offset="1" stop-color="#f0c87c"/></linearGradient><linearGradient id="paper" x2=".3" y2="1"><stop stop-color="#f8e6bb"/><stop offset="1" stop-color="#c8ad7e"/></linearGradient><linearGradient id="glass" x2="1" y2=".2"><stop stop-color="#296a82" stop-opacity=".5"/><stop offset=".45" stop-color="#152f47" stop-opacity=".3"/><stop offset="1" stop-color="#75c3e3" stop-opacity=".7"/></linearGradient><filter id="glow" x="-120%" y="-120%" width="340%" height="340%"><feGaussianBlur stdDeviation="16"/></filter><pattern id="mesh" width="37" height="37" patternUnits="userSpaceOnUse" patternTransform="rotate(10)"><path d="M0 0H37V37H0Z" fill="none" stroke="#e1ce9b" stroke-width="3"/></pattern><pattern id="texture" width="37" height="29" patternUnits="userSpaceOnUse"><path d="M5 10L7 11M24 21L27 23" stroke="#daeafa" stroke-opacity=".07" stroke-width="2"/></pattern></defs><rect width="1400" height="640" rx="26" fill="url(#background)"/><ellipse cx="700" cy="320" rx="590" ry="290" fill="url(#halo)"/><rect width="1400" height="640" rx="26" fill="url(#texture)"/><rect x="622" y="103" width="550" height="442" rx="22" fill="url(#paper)" stroke="#112e3c" stroke-width="8"/><path d="M676 224Q817 159 883 234T1123 199M690 354Q814 299 903 374T1133 319" fill="none" stroke="#798e91" stroke-width="15"/><path d="M1005 459L1096 363L1141 442Z" fill="#637e82"/><ellipse cx="360" cy="235" rx="34" ry="115" transform="rotate(-30 360 235)" fill="url(#metal)" stroke="url(#gold)" stroke-width="10"/><ellipse cx="494" cy="413" rx="30" ry="93" transform="rotate(24 494 413)" fill="url(#metal)" stroke="url(#gold)" stroke-width="9"/><path d="M176 88L357 235L495 412L948 312" fill="none" stroke="#fff0a6" stroke-width="7" stroke-linecap="round" stroke-linejoin="round" /><circle cx="950" cy="312" r="15" fill="#f8dc81"/><text x="981" y="293" fill="#604f32" font-size="27" font-family="Georgia, serif" text-anchor="middle">Mondtaugang</text><text x="704" y="596" fill="#efc77b" font-size="27" font-family="Georgia, serif" text-anchor="middle">Licht empfängt — umlenkt — zeigt den Weg</text><rect x="14" y="14" width="1372" height="612" rx="19" fill="none" stroke="#729aa9" stroke-opacity=".3" stroke-width="2"/></svg>
