<svg xmlns="http://www.w3.org/2000/svg" width="1400" height="640" viewBox="0 0 1400 640" role="img" aria-labelledby="title"><title id="title">Wolkenstraße zu den Netzen</title><defs><linearGradient id="background" x2="0" y2="1"><stop stop-color="#173d4e"/><stop offset="1" stop-color="#0c2430"/></linearGradient><radialGradient id="halo"><stop stop-color="#639bb0" stop-opacity=".3"/><stop offset="1" stop-color="#163846" stop-opacity="0"/></radialGradient><linearGradient id="cloud" x2=".2" y2="1"><stop stop-color="#f7fcff"/><stop offset=".55" stop-color="#c4d9ef"/><stop offset="1" stop-color="#7395b9"/></linearGradient><linearGradient id="crystal" x2="1" y2="1"><stop stop-color="#e8faff"/><stop offset=".42" stop-color="#84c6e3"/><stop offset="1" stop-color="#437bba"/></linearGradient><linearGradient id="metal" x2="1" y2="1"><stop stop-color="#e1f5fb"/><stop offset=".35" stop-color="#86b7d6"/><stop offset=".7" stop-color="#c8e5f2"/><stop offset="1" stop-color="#567b9b"/></linearGradient><linearGradient id="gold" x2=".2" y2="1"><stop stop-color="#ffe2a3"/><stop offset=".5" stop-color="#c48738"/><stop offset="1" stop-color="#f0c87c"/></linearGradient><linearGradient id="paper" x2=".3" y2="1"><stop stop-color="#f8e6bb"/><stop offset="1" stop-color="#c8ad7e"/></linearGradient><linearGradient id="glass" x2="1" y2=".2"><stop stop-color="#296a82" stop-opacity=".5"/><stop offset=".45" stop-color="#152f47" stop-opacity=".3"/><stop offset="1" stop-color="#75c3e3" stop-opacity=".7"/></linearGradient><filter id="glow" x="-120%" y="-120%" width="340%" height="340%"><feGaussianBlur stdDeviation="16"/></filter><pattern id="mesh" width="37" height="37" patternUnits="userSpaceOnUse" patternTransform="rotate(10)"><path d="M0 0H37V37H0Z" fill="none" stroke="#e1ce9b" stroke-width="3"/></pattern><pattern id="texture" width="37" height="29" patternUnits="userSpaceOnUse"><path d="M5 10L7 11M24 21L27 23" stroke="#daeafa" stroke-opacity=".07" stroke-width="2"/></pattern></defs><rect width="1400" height="640" rx="26" fill="url(#background)"/><ellipse cx="700" cy="320" rx="590" ry="290" fill="url(#halo)"/><rect width="1400" height="640" rx="26" fill="url(#texture)"/><path d="M474 571Q473 336 685 303Q865 277 897 101L1070 115Q1011 433 799 435Q712 445 744 578Z" fill="url(#cloud)" stroke="#789daf" stroke-width="5"/><path d="M943 116V362M1201 69V337" stroke="#bfa075" stroke-width="14"/><path d="M943 131L1201 79L1201 337L943 355Z" fill="url(#mesh)" stroke="#efc77b" stroke-width="5"/><g transform="translate(259 294) scale(0.7)"><path d="M-180 22C-208-21-172-67-128-53C-117-111-47-130-7-86C39-126 111-93 115-42C184-58 218 11 162 44C73 72-89 75-180 22Z" fill="url(#cloud)" stroke="#638a9b" stroke-width="3"/></g><text x="369" y="111" fill="#efc77b" font-size="29" font-family="Georgia, serif" text-anchor="middle">Auf der breiten Wolkenfläche bleiben</text><rect x="14" y="14" width="1372" height="612" rx="19" fill="none" stroke="#729aa9" stroke-opacity=".3" stroke-width="2"/></svg>
