<svg xmlns="http://www.w3.org/2000/svg" width="1400" height="640" viewBox="0 0 1400 640" role="img" aria-labelledby="title"><title id="title">Vergrößertes Schneekristallmodell</title><defs><linearGradient id="background" x2="0" y2="1"><stop stop-color="#173d4e"/><stop offset="1" stop-color="#0c2430"/></linearGradient><radialGradient id="halo"><stop stop-color="#639bb0" stop-opacity=".3"/><stop offset="1" stop-color="#163846" stop-opacity="0"/></radialGradient><linearGradient id="cloud" x2=".2" y2="1"><stop stop-color="#f7fcff"/><stop offset=".55" stop-color="#c4d9ef"/><stop offset="1" stop-color="#7395b9"/></linearGradient><linearGradient id="crystal" x2="1" y2="1"><stop stop-color="#e8faff"/><stop offset=".42" stop-color="#84c6e3"/><stop offset="1" stop-color="#437bba"/></linearGradient><linearGradient id="metal" x2="1" y2="1"><stop stop-color="#e1f5fb"/><stop offset=".35" stop-color="#86b7d6"/><stop offset=".7" stop-color="#c8e5f2"/><stop offset="1" stop-color="#567b9b"/></linearGradient><linearGradient id="gold" x2=".2" y2="1"><stop stop-color="#ffe2a3"/><stop offset=".5" stop-color="#c48738"/><stop offset="1" stop-color="#f0c87c"/></linearGradient><linearGradient id="paper" x2=".3" y2="1"><stop stop-color="#f8e6bb"/><stop offset="1" stop-color="#c8ad7e"/></linearGradient><linearGradient id="glass" x2="1" y2=".2"><stop stop-color="#296a82" stop-opacity=".5"/><stop offset=".45" stop-color="#152f47" stop-opacity=".3"/><stop offset="1" stop-color="#75c3e3" stop-opacity=".7"/></linearGradient><filter id="glow" x="-120%" y="-120%" width="340%" height="340%"><feGaussianBlur stdDeviation="16"/></filter><pattern id="mesh" width="37" height="37" patternUnits="userSpaceOnUse" patternTransform="rotate(10)"><path d="M0 0H37V37H0Z" fill="none" stroke="#e1ce9b" stroke-width="3"/></pattern><pattern id="texture" width="37" height="29" patternUnits="userSpaceOnUse"><path d="M5 10L7 11M24 21L27 23" stroke="#daeafa" stroke-opacity=".07" stroke-width="2"/></pattern></defs><rect width="1400" height="640" rx="26" fill="url(#background)"/><ellipse cx="700" cy="320" rx="590" ry="290" fill="url(#halo)"/><rect width="1400" height="640" rx="26" fill="url(#texture)"/><g transform="translate(670 320) scale(1.23)"><g transform="rotate(0)" data-crystal-arm="1"><path d="M0 0L0-192M0-72L-35-105M0-72L35-105M0-128L-28-152M0-128L28-152" fill="none" stroke="#9cd5ed" stroke-width="14" stroke-linecap="round" stroke-linejoin="round" /><path d="M0-8L0-184" fill="none" stroke="#ecfbff" stroke-width="4" stroke-linecap="round" stroke-linejoin="round" /></g><g transform="rotate(60)" data-crystal-arm="2"><path d="M0 0L0-192M0-72L-35-105M0-72L35-105M0-128L-28-152M0-128L28-152" fill="none" stroke="#9cd5ed" stroke-width="14" stroke-linecap="round" stroke-linejoin="round" /><path d="M0-8L0-184" fill="none" stroke="#ecfbff" stroke-width="4" stroke-linecap="round" stroke-linejoin="round" /></g><g transform="rotate(120)" data-crystal-arm="3"><path d="M0 0L0-192M0-72L-35-105M0-72L35-105M0-128L-28-152M0-128L28-152" fill="none" stroke="#9cd5ed" stroke-width="14" stroke-linecap="round" stroke-linejoin="round" /><path d="M0-8L0-184" fill="none" stroke="#ecfbff" stroke-width="4" stroke-linecap="round" stroke-linejoin="round" /></g><g transform="rotate(180)" data-crystal-arm="4"><path d="M0 0L0-192M0-72L-35-105M0-72L35-105M0-128L-28-152M0-128L28-152" fill="none" stroke="#9cd5ed" stroke-width="14" stroke-linecap="round" stroke-linejoin="round" /><path d="M0-8L0-184" fill="none" stroke="#ecfbff" stroke-width="4" stroke-linecap="round" stroke-linejoin="round" /></g><g transform="rotate(240)" data-crystal-arm="5"><path d="M0 0L0-192M0-72L-35-105M0-72L35-105M0-128L-28-152M0-128L28-152" fill="none" stroke="#9cd5ed" stroke-width="14" stroke-linecap="round" stroke-linejoin="round" /><path d="M0-8L0-184" fill="none" stroke="#ecfbff" stroke-width="4" stroke-linecap="round" stroke-linejoin="round" /></g><g transform="rotate(300)" data-crystal-arm="6"><path d="M0 0L0-192M0-72L-35-105M0-72L35-105M0-128L-28-152M0-128L28-152" fill="none" stroke="#9cd5ed" stroke-width="14" stroke-linecap="round" stroke-linejoin="round" /><path d="M0-8L0-184" fill="none" stroke="#ecfbff" stroke-width="4" stroke-linecap="round" stroke-linejoin="round" /></g><polygon id="hexagonal-core" points="55,0 27.500000000000007,47.63139720814412 -27.49999999999999,47.63139720814413 -55,6.735557395310443e-15 -27.500000000000025,-47.631397208144115 27.500000000000007,-47.63139720814412" fill="url(#crystal)" stroke="#eefaff" stroke-width="4"/></g><g id="sand-grain"><path d="M656 301L679 300L690 320L683 340L660 343L648 324Z" fill="#efc77b" stroke="#8c662b" stroke-width="4"/><path d="M657 311L674 306L679 314" fill="none" stroke="#fff0c0" stroke-width="4"/></g><path d="M647 323L340 323L280 345" fill="none" stroke="#efc77b" stroke-width="2" stroke-linecap="round" stroke-linejoin="round" /><text x="265" y="395" fill="#efc77b" font-size="29" font-family="Georgia, serif" text-anchor="middle">Ein feines Sandkorn</text><path d="M721 340L973 397L1030 410" fill="none" stroke="#addef0" stroke-width="2" stroke-linecap="round" stroke-linejoin="round" /><text x="1100" y="456" fill="#d1e9ed" font-size="26" font-family="Georgia, serif" text-anchor="middle">Sechseckige Mitte</text><path d="M828 229L978 181L1040 167" fill="none" stroke="#addef0" stroke-width="2" stroke-linecap="round" stroke-linejoin="round" /><text x="1110" y="126" fill="#d1e9ed" font-size="26" font-family="Georgia, serif" text-anchor="middle">Sechs Kristallarme</text><rect x="14" y="14" width="1372" height="612" rx="19" fill="none" stroke="#729aa9" stroke-opacity=".3" stroke-width="2"/></svg>
