<svg xmlns="http://www.w3.org/2000/svg" width="1400" height="640" viewBox="0 0 1400 640" role="img" aria-labelledby="title"><title id="title">Anhänger im Vergleich</title><defs><linearGradient id="background" x2="0" y2="1"><stop stop-color="#173d4e"/><stop offset="1" stop-color="#0c2430"/></linearGradient><radialGradient id="halo"><stop stop-color="#639bb0" stop-opacity=".3"/><stop offset="1" stop-color="#163846" stop-opacity="0"/></radialGradient><linearGradient id="cloud" x2=".2" y2="1"><stop stop-color="#f7fcff"/><stop offset=".55" stop-color="#c4d9ef"/><stop offset="1" stop-color="#7395b9"/></linearGradient><linearGradient id="crystal" x2="1" y2="1"><stop stop-color="#e8faff"/><stop offset=".42" stop-color="#84c6e3"/><stop offset="1" stop-color="#437bba"/></linearGradient><linearGradient id="metal" x2="1" y2="1"><stop stop-color="#e1f5fb"/><stop offset=".35" stop-color="#86b7d6"/><stop offset=".7" stop-color="#c8e5f2"/><stop offset="1" stop-color="#567b9b"/></linearGradient><linearGradient id="gold" x2=".2" y2="1"><stop stop-color="#ffe2a3"/><stop offset=".5" stop-color="#c48738"/><stop offset="1" stop-color="#f0c87c"/></linearGradient><linearGradient id="paper" x2=".3" y2="1"><stop stop-color="#f8e6bb"/><stop offset="1" stop-color="#c8ad7e"/></linearGradient><linearGradient id="glass" x2="1" y2=".2"><stop stop-color="#296a82" stop-opacity=".5"/><stop offset=".45" stop-color="#152f47" stop-opacity=".3"/><stop offset="1" stop-color="#75c3e3" stop-opacity=".7"/></linearGradient><filter id="glow" x="-120%" y="-120%" width="340%" height="340%"><feGaussianBlur stdDeviation="16"/></filter><pattern id="mesh" width="37" height="37" patternUnits="userSpaceOnUse" patternTransform="rotate(10)"><path d="M0 0H37V37H0Z" fill="none" stroke="#e1ce9b" stroke-width="3"/></pattern><pattern id="texture" width="37" height="29" patternUnits="userSpaceOnUse"><path d="M5 10L7 11M24 21L27 23" stroke="#daeafa" stroke-opacity=".07" stroke-width="2"/></pattern></defs><rect width="1400" height="640" rx="26" fill="url(#background)"/><ellipse cx="700" cy="320" rx="590" ry="290" fill="url(#halo)"/><rect width="1400" height="640" rx="26" fill="url(#texture)"/><g transform="translate(369 340) scale(1.06)"><path d="M-68-120H68L82-102L67-84Q116-12 90 122Q0 166-90 122Q-116-12-67-84L-82-102Z" fill="url(#glass)" stroke="#a9d4e8" stroke-width="6"/><ellipse cy="-121" rx="69" ry="13" fill="#153944" stroke="#efc77b" stroke-width="6"/><path d="M-82 45Q-30 24 14 48T88 42L80 119Q0 151-80 119Z" fill="#55b3d1" opacity=".5"/><ellipse cy="24" rx="29" ry="44" fill="#d9fbff" filter="url(#glow)"/><path d="M-23 38Q-4-17 18 2T14 55" fill="none" stroke="#fcffff" stroke-width="8"/><path d="M-65-62Q-84-9-67 70" fill="none" stroke="#ecfcff" stroke-width="7" stroke-linecap="round" stroke-linejoin="round" /></g><g transform="translate(709 340) scale(1.06)"><path d="M-68-120H68L82-102L67-84Q116-12 90 122Q0 166-90 122Q-116-12-67-84L-82-102Z" fill="url(#glass)" stroke="#a9d4e8" stroke-width="6"/><ellipse cy="-121" rx="69" ry="13" fill="#153944" stroke="#efc77b" stroke-width="6"/><path d="M-82 45Q-30 24 14 48T88 42L80 119Q0 151-80 119Z" fill="#55b3d1" opacity=".5"/><ellipse cy="24" rx="29" ry="44" fill="#d9fbff" filter="url(#glow)"/><path d="M-23 38Q-4-17 18 2T14 55" fill="none" stroke="#fcffff" stroke-width="8"/><path d="M-65-62Q-84-9-67 70" fill="none" stroke="#ecfcff" stroke-width="7" stroke-linecap="round" stroke-linejoin="round" /></g><g transform="translate(1049 340) scale(1.06)"><path d="M-68-120H68L82-102L67-84Q116-12 90 122Q0 166-90 122Q-116-12-67-84L-82-102Z" fill="url(#glass)" stroke="#a9d4e8" stroke-width="6"/><ellipse cy="-121" rx="69" ry="13" fill="#153944" stroke="#efc77b" stroke-width="6"/><path d="M-82 45Q-30 24 14 48T88 42L80 119Q0 151-80 119Z" fill="#55b3d1" opacity=".5"/><ellipse cy="24" rx="29" ry="44" fill="#d9fbff" filter="url(#glow)"/><path d="M-23 38Q-4-17 18 2T14 55" fill="none" stroke="#fcffff" stroke-width="8"/><path d="M-65-62Q-84-9-67 70" fill="none" stroke="#ecfcff" stroke-width="7" stroke-linecap="round" stroke-linejoin="round" /></g><path d="M278 228Q369 530 460 228" fill="none" stroke="#d7c69e" stroke-width="5"/><path d="M618 228Q709 530 800 228" fill="none" stroke="#d7c69e" stroke-width="5"/><path d="M958 228Q1049 530 1140 228" fill="none" stroke="#d7c69e" stroke-width="5"/><path d="M369 390L344 427L363 422L356 447L389 407L367 412Z" fill="#efc77b" stroke="#756142" stroke-width="3"/><path d="M709 397L734 422L709 447L684 422Z" fill="#efc77b" stroke="#756142" stroke-width="3"/><circle cx="700" cy="417" r="4" fill="#87693e"/><circle cx="714" cy="425" r="4" fill="#87693e"/><circle cx="1049" cy="422" r="10" fill="none" stroke="#dfd0a6" stroke-width="4"/><text x="369" y="544" fill="#d1e9ed" font-size="26" font-family="Georgia, serif" text-anchor="middle">Blitzfühler</text><text x="709" y="544" fill="#d1e9ed" font-size="26" font-family="Georgia, serif" text-anchor="middle">Sandfänger</text><text x="1049" y="544" fill="#efc77b" font-size="26" font-family="Georgia, serif" text-anchor="middle">Anhänger fehlt</text><rect x="14" y="14" width="1372" height="612" rx="19" fill="none" stroke="#729aa9" stroke-opacity=".3" stroke-width="2"/></svg>
